<svg viewBox="0 0 24 24" xml:space="preserve" xmlns="http://www.w3.org/2000/svg"><path d="m19.43 14.166-2.827-.566-1.5-2.248.845-2.536a.999.999 0 0 0-.706-1.287l-3.73-.932-2.805-2.804a1.002 1.002 0 0 0-1.476.067l-5 6a1 1 0 0 0-.02 1.253l5.198 6.684a6.954 6.954 0 0 0 5.526 2.703h5.867A3.202 3.202 0 0 0 22 17.3a3.206 3.206 0 0 0-2.57-3.135zm-.628 4.334h-5.867a4.97 4.97 0 0 1-3.948-1.93L4.283 10.52l.538-.645 3.398 4.248a1 1 0 1 0 1.562-1.249L6.128 8.308l1.94-2.327 2.225 2.226c.128.128.29.219.465.263l2.952.738-.658 1.975a1 1 0 0 0 .116.871l2 3a1 1 0 0 0 .636.426l3.233.647c.558.111.963.606.963 1.174a1.2 1.2 0 0 1-1.198 1.199z"/></svg>