<svg width="0" height="0" class="hidden">
  <symbol xmlns="http://www.w3.org/2000/svg" viewBox="0 0 16 16" id="calendar">
    <path d="M14.25 2.5h-.75v-1h-1.25v1h-8.5v-1H2.5v1h-.75A1.25 1.25 0 0 0 .5 3.75v9.5a1.25 1.25 0 0 0 1.25 1.25h12.5a1.25 1.25 0 0 0 1.25-1.25v-9.5a1.25 1.25 0 0 0-1.25-1.25zM1.75 3.75h12.5V5H1.75V3.75zm0 9.5v-7h12.5v7z"></path>
    <path d="M3 8h1.1v1.2H3zm0 2.4h1.1v1.2H3zM11.8 8h1.1v1.2h-1.1zm0 2.4h1.1v1.2h-1.1zM9.6 8h1.1v1.2H9.6zm0 2.4h1.1v1.2H9.6zM7.4 8h1.1v1.2H7.4zm0 2.4h1.1v1.2H7.4zM5.2 8h1.1v1.2H5.2zm0 2.4h1.1v1.2H5.2z"></path>
  </symbol>
  <symbol fill="none" xmlns="http://www.w3.org/2000/svg" viewBox="0 0 24 24" id="chevronleft">
    <path d="m14 7-5 5 5 5" stroke="currentColor" stroke-width="1.5" stroke-linecap="round" stroke-linejoin="round"></path>
  </symbol>
  <symbol fill="none" xmlns="http://www.w3.org/2000/svg" viewBox="0 0 24 24" id="chevronright">
    <path d="m10 17 5-5-5-5" stroke="currentColor" stroke-width="1.5" stroke-linecap="round" stroke-linejoin="round"></path>
  </symbol>
  <symbol xml:space="preserve" xmlns="http://www.w3.org/2000/svg" viewBox="0 0 24 24" id="exercise">
    <path d="m19.43 14.166-2.827-.566-1.5-2.248.845-2.536a.999.999 0 0 0-.706-1.287l-3.73-.932-2.805-2.804a1.002 1.002 0 0 0-1.476.067l-5 6a1 1 0 0 0-.02 1.253l5.198 6.684a6.954 6.954 0 0 0 5.526 2.703h5.867A3.202 3.202 0 0 0 22 17.3a3.206 3.206 0 0 0-2.57-3.135zm-.628 4.334h-5.867a4.97 4.97 0 0 1-3.948-1.93L4.283 10.52l.538-.645 3.398 4.248a1 1 0 1 0 1.562-1.249L6.128 8.308l1.94-2.327 2.225 2.226c.128.128.29.219.465.263l2.952.738-.658 1.975a1 1 0 0 0 .116.871l2 3a1 1 0 0 0 .636.426l3.233.647c.558.111.963.606.963 1.174a1.2 1.2 0 0 1-1.198 1.199z"></path>
  </symbol>
  <symbol xmlns="http://www.w3.org/2000/svg" viewBox="0 0 16 16" id="home">
    <path d="M15.5 14.69h-1.25V7.78a.62.62 0 0 0-.25-.47L8.4 2.7a.65.65 0 0 0-.81 0L2 7.31a.62.62 0 0 0-.22.47v6.91H.5V7.78a1.87 1.87 0 0 1 .68-1.44l5.62-4.6a1.88 1.88 0 0 1 2.39 0l5.63 4.6a1.87 1.87 0 0 1 .68 1.44z"></path>
    <path d="M11.05 12.11H9.8A1.72 1.72 0 0 0 8 10.49a1.72 1.72 0 0 0-1.8 1.62H5a3 3 0 0 1 3-2.87 3 3 0 0 1 3.05 2.87zm-6.1 0H6.2v2.58H4.95zm4.85 0h1.25v2.58H9.8z"></path>
  </symbol>
  <symbol fill="none" xmlns="http://www.w3.org/2000/svg" viewBox="0 0 24 24" id="log-in">
    <path d="M11 20h8a2 2 0 0 0 2-2V6a2 2 0 0 0-2-2h-8m-8 8h11m0 0-3 3m3-3-3-3" stroke="#000" stroke-width="2" stroke-linecap="round" stroke-linejoin="round"></path>
  </symbol>
  <symbol xmlns="http://www.w3.org/2000/svg" viewBox="0 0 16 16" id="log-out">
    <path d="M1.3 3.75h5.88V2.5H1.3A1.25 1.25 0 0 0 .05 3.75v8.5A1.25 1.25 0 0 0 1.3 13.5h5.88v-1.25H1.3z"></path>
    <path d="m15.4 7-4-2.74-.71 1 3.08 2.1H4.71v1.26h9.07l-3.08 2.11.71 1L15.4 9a1.24 1.24 0 0 0 0-2z"></path>
  </symbol>
  <symbol xmlns="http://www.w3.org/2000/svg" viewBox="0 0 22 22" id="pause">
    <path d="M6 4h3v14H6V4m7 14V4h3v14h-3Z" fill="currentColor"></path>
  </symbol>
  <symbol fill="none" xmlns="http://www.w3.org/2000/svg" viewBox="0 0 24 24" id="play">
    <path d="M8 6v12l10-6L8 6Z" stroke="currentColor" stroke-width="1.5" stroke-linejoin="round"></path>
  </symbol>
  <symbol fill="none" xmlns="http://www.w3.org/2000/svg" viewBox="0 0 24 24" id="profile">
    <path d="M12.12 12.78a.963.963 0 0 0-.24 0 3.27 3.27 0 0 1-3.16-3.27c0-1.81 1.46-3.28 3.28-3.28a3.276 3.276 0 0 1 .12 6.55Zm6.62 6.6A9.934 9.934 0 0 1 12 22c-2.6 0-4.96-.99-6.74-2.62.1-.94.7-1.86 1.77-2.58 2.74-1.82 7.22-1.82 9.94 0 1.07.72 1.67 1.64 1.77 2.58Z" stroke="currentColor" stroke-width="1.5" stroke-linecap="round" stroke-linejoin="round"></path>
    <path d="M12 22c5.523 0 10-4.477 10-10S17.523 2 12 2 2 6.477 2 12s4.477 10 10 10Z" stroke="currentColor" stroke-width="1.5" stroke-linecap="round" stroke-linejoin="round"></path>
  </symbol>
  <symbol xmlns="http://www.w3.org/2000/svg" viewBox="0 0 16 16" id="program">
    <path d="M14.25 1.5h-2.12c-.35 0-.62.28-.62.62s.28.62.62.62h2.12v2.52c0 .35.28.62.62.62s.62-.28.62-.62V2.75c0-.69-.56-1.25-1.25-1.25zM1.12 5.89c.35 0 .62-.28.62-.62V2.75h2.15c.35 0 .62-.28.62-.62s-.28-.62-.62-.62H1.75C1.06 1.51.5 2.07.5 2.76v2.52c0 .35.28.62.62.62zm2.77 7.36H1.75v-2.52c0-.35-.28-.62-.62-.62s-.62.28-.62.62v2.52c0 .69.56 1.25 1.25 1.25h2.13c.35 0 .62-.28.62-.62s-.28-.62-.62-.62zm10.99-3.14c-.35 0-.62.28-.62.62v2.52h-2.12c-.35 0-.62.28-.62.62s.28.62.62.62h2.12c.69 0 1.25-.56 1.25-1.25v-2.52c0-.35-.28-.62-.62-.62z"></path>
    <path d="M6.12 3.55H4.03c-.69 0-1.25.56-1.25 1.25v1.54c0 .69.56 1.25 1.25 1.25h2.09c.69 0 1.25-.56 1.25-1.25V4.8c0-.69-.56-1.25-1.25-1.25zm0 2.79H4.03V4.8h2.09v1.54zm7.1 4.86V9.66c0-.69-.56-1.25-1.25-1.25H9.88c-.69 0-1.25.56-1.25 1.25v1.54c0 .69.56 1.25 1.25 1.25h2.09c.69 0 1.25-.56 1.25-1.25zM9.88 9.66h2.09v1.54H9.88V9.66zM8.63 5.85h2.52V7.1H8.63zm0-1.8h4.59V5.3H8.63zM4.85 8.9h2.52v1.25H4.85zm-2.07 1.8h4.59v1.25H2.78z"></path>
  </symbol>
  <symbol xmlns="http://www.w3.org/2000/svg" viewBox="0 0 1024 1024" id="stop">
    <path fill="currentColor" d="M307.2 307.2h409.6v409.6H307.2z" fill-rule="evenodd"></path>
  </symbol>
  <symbol xmlns="http://www.w3.org/2000/svg" xml:space="preserve" viewBox="0 0 342.357 342.357" id="tick">
    <path d="M290.04 33.286 118.861 204.427l-66.541-66.52L0 190.226l118.862 118.845L342.357 85.606z" fill="currentColor"></path>
  </symbol>
  <symbol xmlns="http://www.w3.org/2000/svg" viewBox="0 0 24 24" id="time">
    <path fill="currentColor" d="M14 18a3.009 3.009 0 0 0-1 .171V18a1 1 0 0 1 1-1 .985.985 0 0 1 .75.339 1 1 0 1 0 1.5-1.322A3 3 0 0 0 11 18v3a3 3 0 0 0 5.544 1.589 3.054 3.054 0 0 0 .121-3.009A2.942 2.942 0 0 0 14 18Zm.849 3.529A1 1 0 1 1 14 20a.954.954 0 0 1 .866.455 1.068 1.068 0 0 1-.017 1.074ZM21 15a3 3 0 0 0-3 3v3a3 3 0 0 0 6 0v-3a3 3 0 0 0-3-3Zm1 6a1 1 0 0 1-2 0v-3a1 1 0 0 1 2 0Zm-10-8H8a1 1 0 0 1 0-2h3V7a1 1 0 0 1 2 0v5a1 1 0 0 1-1 1ZM24 3v3a3 3 0 0 1-3 3h-3a1 1 0 0 1 0-2h2.637A9.991 9.991 0 1 0 8.364 21.318a1 1 0 0 1-.728 1.864A12 12 0 1 1 22 5.374V3a1 1 0 0 1 2 0Z"></path>
  </symbol>
</svg>